<?xml version="1.0" encoding="UTF-8" standalone="no" ?>
<!DOCTYPE svg PUBLIC "-//W3C//DTD SVG 1.1//EN" "http://www.w3.org/Graphics/SVG/1.1/DTD/svg11.dtd">
<svg xmlns="http://www.w3.org/2000/svg" xmlns:xlink="http://www.w3.org/1999/xlink" version="1.1" width="898.95" height="368.47" viewBox="0 0 898.95 368.47" xml:space="preserve">
<desc>Created with Fabric.js 5.3.0</desc>
<defs>
</defs>
<g transform="matrix(1 0 0 1 449.475 184.235)" id="6M0XlwjUvB9y2QW6HNSn3"  >
<path style="stroke: none; stroke-width: 1; stroke-dasharray: none; stroke-linecap: butt; stroke-dashoffset: 0; stroke-linejoin: miter; stroke-miterlimit: 4; fill: rgb(165,199,240); fill-rule: nonzero; opacity: 1;"  transform=" translate(-433.16815, -189.37187)" d="M 761.695 257.249 C 828.494 257.249 882.645 200.811 882.645 131.192 C 882.645 61.5724 828.494 5.13474 761.695 5.13474 C 699.728 5.13474 648.645 53.7028 641.579 116.307 C 636.524 115.468 631.331 115.031 626.035 115.031 C 579.436 115.031 540.829 148.858 533.958 193.032 C 525.865 190.653 517.267 189.372 508.353 189.372 C 476.414 189.372 448.512 205.819 433.491 230.296 C 424.808 226.833 415.32 224.927 405.382 224.927 C 384.072 224.927 364.832 233.693 351.15 247.778 C 337.191 222.789 307.439 205.533 272.991 205.533 C 250.781 205.533 230.523 212.706 215.191 224.5 C 194.795 195.952 153.678 176.443 106.276 176.443 C 38.5743 176.443 -16.3087 216.239 -16.3087 265.33 C -16.3087 314.42 38.5743 354.216 106.276 354.216 C 144.568 354.216 178.76 341.485 201.239 321.542 C 216.817 341.259 243.141 354.216 272.991 354.216 C 298.305 354.216 321.082 344.898 336.921 330.041 C 348.756 355.742 374.959 373.609 405.382 373.609 C 430.113 373.609 452.055 361.803 465.757 343.58 C 478.336 350.351 492.87 354.216 508.353 354.216 C 548.504 354.216 582.274 328.227 592.096 292.965 C 602.612 297.034 614.06 299.268 626.035 299.268 C 663.627 299.268 696.019 277.253 710.743 245.551 C 726.228 253.058 743.492 257.249 761.695 257.249 Z" stroke-linecap="round" />
</g>
</svg>