<svg width="764" height="275" viewBox="0 0 764 275" fill="none" xmlns="http://www.w3.org/2000/svg">
<g filter="url(#filter0_d_123_6)">
<path fill-rule="evenodd" clip-rule="evenodd" d="M784.536 258.268C851.335 258.268 905.486 201.83 905.486 132.211C905.486 62.5915 851.335 6.15378 784.536 6.15378C722.569 6.15378 671.486 54.7218 664.42 117.326C659.365 116.487 654.172 116.05 648.875 116.05C602.277 116.05 563.669 149.877 556.798 194.051C548.706 191.672 540.107 190.391 531.194 190.391C499.255 190.391 471.352 206.838 456.332 231.315C447.648 227.852 438.161 225.946 428.223 225.946C406.912 225.946 387.672 234.712 373.991 248.798C360.032 223.808 330.28 206.552 295.832 206.552C273.622 206.552 253.364 213.725 238.032 225.519C217.636 196.971 176.518 177.462 129.116 177.462C61.4148 177.462 6.53183 217.258 6.53183 266.348C6.53183 315.439 61.4148 355.235 129.116 355.235C167.409 355.235 201.6 342.504 224.08 322.561C239.658 342.278 265.981 355.235 295.832 355.235C321.145 355.235 343.923 345.917 359.762 331.06C371.597 356.761 397.8 374.628 428.223 374.628C452.954 374.628 474.895 362.822 488.598 344.599C501.176 351.37 515.711 355.235 531.194 355.235C571.344 355.235 605.115 329.246 614.936 293.984C625.453 298.053 636.9 300.287 648.875 300.287C686.467 300.287 718.859 278.272 733.583 246.57C749.068 254.077 766.332 258.268 784.536 258.268Z" fill="#FBFDFF"/>
</g>
<defs>
<filter id="filter0_d_123_6" x="0.53183" y="0.153778" width="910.954" height="380.475" filterUnits="userSpaceOnUse" color-interpolation-filters="sRGB">
<feFlood flood-opacity="0" result="BackgroundImageFix"/>
<feColorMatrix in="SourceAlpha" type="matrix" values="0 0 0 0 0 0 0 0 0 0 0 0 0 0 0 0 0 0 127 0" result="hardAlpha"/>
<feOffset/>
<feGaussianBlur stdDeviation="3"/>
<feComposite in2="hardAlpha" operator="out"/>
<feColorMatrix type="matrix" values="0 0 0 0 0 0 0 0 0 0 0 0 0 0 0 0 0 0 0.1 0"/>
<feBlend mode="normal" in2="BackgroundImageFix" result="effect1_dropShadow_123_6"/>
<feBlend mode="normal" in="SourceGraphic" in2="effect1_dropShadow_123_6" result="shape"/>
</filter>
</defs>
</svg>
