<svg width="285" height="300" viewBox="0 0 285 300" fill="none" xmlns="http://www.w3.org/2000/svg">
<path d="M32.3977 47.1913L35.2552 62.025C35.4881 63.2339 36.436 64.1778 37.6458 64.4057L52.669 67.2351L37.6458 70.0646C36.436 70.2924 35.4881 71.2363 35.2552 72.4453L32.3977 87.2789L29.5402 72.4453C29.3073 71.2363 28.3594 70.2924 27.1496 70.0646L12.1263 67.2351L27.1496 64.4057C28.3594 64.1778 29.3073 63.2339 29.5402 62.025L32.3977 47.1913Z" fill="#C5C7CF"/>
<path d="M32.3977 47.1913L35.2552 62.025C35.4881 63.2339 36.436 64.1778 37.6458 64.4057L52.669 67.2351L37.6458 70.0646C36.436 70.2924 35.4881 71.2363 35.2552 72.4453L32.3977 87.2789L29.5402 72.4453C29.3073 71.2363 28.3594 70.2924 27.1496 70.0646L12.1263 67.2351L27.1496 64.4057C28.3594 64.1778 29.3073 63.2339 29.5402 62.025L32.3977 47.1913Z" fill="#C5C7CF"/>
<path d="M197.271 0L200.129 14.8337C200.362 16.0426 201.31 16.9865 202.519 17.2144L217.543 20.0438L202.519 22.8733C201.31 23.1011 200.362 24.0451 200.129 25.254L197.271 40.0877L194.414 25.254C194.181 24.0451 193.233 23.1011 192.023 22.8733L177 20.0438L192.023 17.2144C193.233 16.9865 194.181 16.0426 194.414 14.8337L197.271 0Z" fill="#C5C7CF"/>
<path d="M165.271 99L168.129 113.834C168.362 115.043 169.31 115.987 170.52 116.214L185.543 119.044L170.52 121.873C169.31 122.101 168.362 123.045 168.129 124.254L165.271 139.088L162.414 124.254C162.181 123.045 161.233 122.101 160.023 121.873L145 119.044L160.023 116.214C161.233 115.987 162.181 115.043 162.414 113.834L165.271 99Z" fill="#C5C7CF"/>
<path d="M267.375 265L269.77 277.428C270.003 278.637 270.95 279.581 272.16 279.809L284.751 282.18L272.16 284.552C270.95 284.78 270.003 285.724 269.77 286.932L267.375 299.361L264.981 286.932C264.748 285.724 263.801 284.78 262.591 284.552L250 282.18L262.591 279.809C263.801 279.581 264.748 278.637 264.981 277.428L267.375 265Z" fill="#C5C7CF"/>
<path d="M185.688 239L186.692 244.213C186.925 245.422 187.873 246.365 189.082 246.593L194.375 247.59L189.082 248.587C187.873 248.815 186.925 249.759 186.692 250.968L185.688 256.18L184.684 250.968C184.451 249.759 183.503 248.815 182.293 248.587L177 247.59L182.293 246.593C183.503 246.365 184.451 245.422 184.684 244.213L185.688 239Z" fill="#C5C7CF"/>
<path d="M266.584 133L268.051 140.618C268.284 141.827 269.232 142.771 270.442 142.999L278.167 144.454L270.442 145.909C269.232 146.136 268.284 147.08 268.051 148.289L266.584 155.907L265.116 148.289C264.883 147.08 263.935 146.137 262.726 145.909L255 144.454L262.726 142.999C263.935 142.771 264.883 141.827 265.116 140.618L266.584 133Z" fill="#C5C7CF"/>
<path d="M121.688 53L122.692 58.2127C122.925 59.4216 123.873 60.3655 125.082 60.5933L130.375 61.5902L125.082 62.5871C123.873 62.815 122.925 63.7589 122.692 64.9678L121.688 70.1804L120.684 64.9678C120.451 63.7589 119.503 62.815 118.293 62.5871L113 61.5902L118.293 60.5933C119.503 60.3655 120.451 59.4216 120.684 58.2127L121.688 53Z" fill="#C5C7CF"/>
<path d="M228.688 235L229.692 240.213C229.925 241.422 230.873 242.365 232.082 242.593L237.375 243.59L232.082 244.587C230.873 244.815 229.925 245.759 229.692 246.968L228.688 252.18L227.684 246.968C227.451 245.759 226.503 244.815 225.293 244.587L220 243.59L225.293 242.593C226.503 242.365 227.451 241.422 227.684 240.213L228.688 235Z" fill="#C5C7CF"/>
<path d="M91.6878 144L92.6919 149.213C92.9248 150.422 93.8726 151.365 95.0825 151.593L100.375 152.59L95.0825 153.587C93.8726 153.815 92.9248 154.759 92.6919 155.968L91.6878 161.18L90.6836 155.968C90.4507 154.759 89.5029 153.815 88.293 153.587L83 152.59L88.293 151.593C89.5029 151.365 90.4507 150.422 90.6836 149.213L91.6878 144Z" fill="#C5C7CF"/>
<path d="M209.584 161L211.051 168.618C211.284 169.827 212.232 170.771 213.442 170.999L221.167 172.454L213.442 173.909C212.232 174.136 211.284 175.08 211.051 176.289L209.584 183.907L208.116 176.289C207.883 175.08 206.935 174.137 205.726 173.909L198 172.454L205.726 170.999C206.935 170.771 207.883 169.827 208.116 168.618L209.584 161Z" fill="#C5C7CF"/>
<path d="M11.5836 149L13.0511 156.618C13.284 157.827 14.2319 158.771 15.4417 158.999L23.1673 160.454L15.4417 161.909C14.2319 162.136 13.284 163.08 13.0511 164.289L11.5836 171.907L10.1161 164.289C9.88325 163.08 8.93541 162.137 7.72554 161.909L0 160.454L7.72554 158.999C8.93541 158.771 9.88325 157.827 10.1161 156.618L11.5836 149Z" fill="#C5C7CF"/>
<path d="M100.375 239L102.77 251.428C103.003 252.637 103.95 253.581 105.16 253.809L117.751 256.18L105.16 258.552C103.95 258.78 103.003 259.724 102.77 260.932L100.375 273.361L97.9813 260.932C97.7484 259.724 96.8006 258.78 95.5907 258.552L83 256.18L95.5907 253.809C96.8006 253.581 97.7484 252.637 97.9813 251.428L100.375 239Z" fill="#C5C7CF"/>
</svg>
